<?xml version="1.0" encoding="utf-8"?>
<!-- Generator: Adobe Illustrator 26.5.0, SVG Export Plug-In . SVG Version: 6.00 Build 0)  -->
<svg version="1.1" id="Capa_1" xmlns="http://www.w3.org/2000/svg" xmlns:xlink="http://www.w3.org/1999/xlink" x="0px" y="0px"
	 viewBox="0 0 24 24" style="enable-background:new 0 0 24 24;" xml:space="preserve">
<style type="text/css">
	.st0{fill-rule:evenodd;clip-rule:evenodd;}
</style>
<path d="M12.4,8l-3,3H18v2H9.4l3,3L11,17.4L5.6,12L11,6.6L12.4,8z"/>
<path class="st0" d="M12,23C5.9,23,1,18.1,1,12C1,5.9,5.9,1,12,1c6.1,0,11,4.9,11,11C23,18.1,18.1,23,12,23z M3,12c0,5,4,9,9,9
	c5,0,9-4,9-9c0-5-4-9-9-9C7,3,3,7,3,12z"/>
</svg>
