<?xml version="1.0" encoding="utf-8"?>
<!-- Generator: Adobe Illustrator 26.5.0, SVG Export Plug-In . SVG Version: 6.00 Build 0)  -->
<svg version="1.1" id="Capa_1" xmlns="http://www.w3.org/2000/svg" xmlns:xlink="http://www.w3.org/1999/xlink" x="0px" y="0px"
	 viewBox="0 0 3845 685" style="enable-background:new 0 0 3845 685;" xml:space="preserve">
<style type="text/css">
	.st0{fill:none;stroke:#CCCCCC;}
	.st1{fill:#4682B4;stroke:#355E95;stroke-width:1.5;}
	.st2{font-family:'Arial-BoldMT';}
	.st3{font-size:11px;}
	.st4{fill:#50B456;stroke:#0D952C;stroke-width:1.5;}
</style>
<g transform="translate(1207.5,30)">
	<path class="st0" d="M0,0c0,40-887.5,40-887.5,80"/>
	<path class="st0" d="M0,0c0,40,887.5,40,887.5,80"/>
	<path class="st0" d="M-887.5,80c0,40-150,40-150,80"/>
	<path class="st0" d="M-887.5,80c0,40,50,40,50,80"/>
	<path class="st0" d="M-837.5,160c0,40,0,40,0,80"/>
	<path class="st0" d="M887.5,80c0,40-1225,40-1225,80"/>
	<path class="st0" d="M887.5,80c0,40-975,40-975,80"/>
	<path class="st0" d="M-887.5,80c0,40-250,40-250,80"/>
	<path class="st0" d="M-887.5,80c0,40-50,40-50,80"/>
	<path class="st0" d="M-887.5,80c0,40,150,40,150,80"/>
	<path class="st0" d="M-887.5,80c0,40,250,40,250,80"/>
	<path class="st0" d="M887.5,80c0,40-18.8,40-18.8,80"/>
	<path class="st0" d="M887.5,80c0,40,1325,40,1325,80"/>
	<path class="st0" d="M-337.5,160c0,40-50,40-50,80"/>
	<path class="st0" d="M-337.5,160c0,40,50,40,50,80"/>
	<path class="st0" d="M-287.5,240c0,40,0,40,0,80"/>
	<path class="st0" d="M-287.5,320c0,40,0,40,0,80"/>
	<path class="st0" d="M-287.5,400c0,40-150,40-150,80"/>
	<path class="st0" d="M-287.5,400c0,40-50,40-50,80"/>
	<path class="st0" d="M-287.5,400c0,40,50,40,50,80"/>
	<path class="st0" d="M-287.5,400c0,40,150,40,150,80"/>
	<path class="st0" d="M-437.5,480c0,40,0,40,0,80"/>
	<path class="st0" d="M-437.5,560c0,40,0,40,0,80"/>
	<path class="st0" d="M-337.5,480c0,40,0,40,0,80"/>
	<path class="st0" d="M-337.5,560c0,40,0,40,0,80"/>
	<path class="st0" d="M-237.5,480c0,40,0,40,0,80"/>
	<path class="st0" d="M-237.5,560c0,40,0,40,0,80"/>
	<path class="st0" d="M-137.5,480c0,40,0,40,0,80"/>
	<path class="st0" d="M-137.5,560c0,40,0,40,0,80"/>
	<path class="st0" d="M-87.5,160c0,40,0,40,0,80"/>
	<path class="st0" d="M-87.5,240c0,40,0,40,0,80"/>
	<path class="st0" d="M-87.5,320c0,40,0,40,0,80"/>
	<path class="st0" d="M868.8,160c0,40-481.2,40-481.2,80"/>
	<path class="st0" d="M868.8,160c0,40,531.2,40,531.2,80"/>
	<path class="st0" d="M387.5,240c0,40-275,40-275,80"/>
	<path class="st0" d="M387.5,240c0,40,275,40,275,80"/>
	<path class="st0" d="M112.5,320c0,40,0,40,0,80"/>
	<path class="st0" d="M662.5,320c0,40-400,40-400,80"/>
	<path class="st0" d="M662.5,320c0,40-300,40-300,80"/>
	<path class="st0" d="M662.5,320c0,40-200,40-200,80"/>
	<path class="st0" d="M662.5,320c0,40-100,40-100,80"/>
	<path class="st0" d="M662.5,320c0,40,0,40,0,80"/>
	<path class="st0" d="M662.5,320c0,40,100,40,100,80"/>
	<path class="st0" d="M662.5,320c0,40,200,40,200,80"/>
	<path class="st0" d="M662.5,320c0,40,300,40,300,80"/>
	<path class="st0" d="M662.5,320c0,40,400,40,400,80"/>
	<path class="st0" d="M262.5,400c0,40,0,40,0,80"/>
	<path class="st0" d="M462.5,400c0,40,0,40,0,80"/>
	<path class="st0" d="M662.5,400c0,40,0,40,0,80"/>
	<path class="st0" d="M862.5,400c0,40,0,40,0,80"/>
	<path class="st0" d="M1062.5,400c0,40,0,40,0,80"/>
	<path class="st0" d="M1400,240c0,40-187.5,40-187.5,80"/>
	<path class="st0" d="M1400,240c0,40,187.5,40,187.5,80"/>
	<path class="st0" d="M1212.5,320c0,40,0,40,0,80"/>
	<path class="st0" d="M1587.5,320c0,40-225,40-225,80"/>
	<path class="st0" d="M1587.5,320c0,40-75,40-75,80"/>
	<path class="st0" d="M1587.5,320c0,40,75,40,75,80"/>
	<path class="st0" d="M1587.5,320c0,40,225,40,225,80"/>
	<path class="st0" d="M1362.5,400c0,40-25,40-25,80"/>
	<path class="st0" d="M1362.5,400c0,40,25,40,25,80"/>
	<path class="st0" d="M1512.5,400c0,40-25,40-25,80"/>
	<path class="st0" d="M1512.5,400c0,40,25,40,25,80"/>
	<path class="st0" d="M1662.5,400c0,40-25,40-25,80"/>
	<path class="st0" d="M1662.5,400c0,40,25,40,25,80"/>
	<path class="st0" d="M1812.5,400c0,40-25,40-25,80"/>
	<path class="st0" d="M1812.5,400c0,40,25,40,25,80"/>
	<path class="st0" d="M2212.5,160c0,40-200,40-200,80"/>
	<path class="st0" d="M2212.5,160c0,40,200,40,200,80"/>
	<path class="st0" d="M2012.5,240c0,40-50,40-50,80"/>
	<path class="st0" d="M2012.5,240c0,40,50,40,50,80"/>
	<path class="st0" d="M1962.5,320c0,40,0,40,0,80"/>
	<path class="st0" d="M2062.5,320c0,40,0,40,0,80"/>
	<path class="st0" d="M2412.5,240c0,40-150,40-150,80"/>
	<path class="st0" d="M2412.5,240c0,40-50,40-50,80"/>
	<path class="st0" d="M2412.5,240c0,40,50,40,50,80"/>
	<path class="st0" d="M2412.5,240c0,40,150,40,150,80"/>
	<path class="st0" d="M2262.5,320c0,40,0,40,0,80"/>
	<path class="st0" d="M2362.5,320c0,40,0,40,0,80"/>
	<path class="st0" d="M2462.5,320c0,40,0,40,0,80"/>
	<path class="st0" d="M2562.5,320c0,40,0,40,0,80"/>
	<g transform="translate(0,0)">
		<circle class="st1" cx="0" cy="0" r="10"/>
		<text transform="matrix(1 0 0 1 -11.6096 -15)" class="st2 st3">html</text>
	</g>
	<g transform="translate(-887.5,80)">
		<circle class="st1" cx="0" cy="0" r="10"/>
		<text transform="matrix(1 0 0 1 -12.8369 -15)" class="st2 st3">head</text>
	</g>
	<g transform="translate(-1037.5,160)">
		<circle class="st1" cx="0" cy="0" r="10"/>
		<text transform="matrix(1 0 0 1 -12.8396 -15)" class="st2 st3">meta</text>
	</g>
	<g transform="translate(-837.5,160)">
		<circle class="st1" cx="0" cy="0" r="10"/>
		<text transform="matrix(1 0 0 1 -9.7781 -15)" class="st2 st3">title</text>
	</g>
	<g transform="translate(-837.5,240)">
		<circle class="st4" cx="0" cy="0" r="10"/>
		<text transform="matrix(1 0 0 1 -12.8396 -15)" class="st2 st3">#text</text>
	</g>
	<g transform="translate(887.5,80)">
		<circle class="st1" cx="0" cy="0" r="10"/>
		<text transform="matrix(1 0 0 1 -13.1377 -15)" class="st2 st3">body</text>
	</g>
	<g transform="translate(-337.5,160)">
		<circle class="st1" cx="0" cy="0" r="10"/>
		<text transform="matrix(1 0 0 1 -37.2969 -15)" class="st2 st3">header.header</text>
	</g>
	<g transform="translate(-87.5,160)">
		<circle class="st1" cx="0" cy="0" r="10"/>
		<text transform="matrix(1 0 0 1 -39.1204 -15)" class="st2 st3">section.banner</text>
	</g>
	<g transform="translate(-1137.5,160)">
		<circle class="st1" cx="0" cy="0" r="10"/>
		<text transform="matrix(1 0 0 1 -12.8396 -15)" class="st2 st3">meta</text>
	</g>
	<g transform="translate(-937.5,160)">
		<circle class="st1" cx="0" cy="0" r="10"/>
		<text transform="matrix(1 0 0 1 -12.8396 -15)" class="st2 st3">meta</text>
	</g>
	<g transform="translate(-737.5,160)">
		<circle class="st1" cx="0" cy="0" r="10"/>
		<text transform="matrix(1 0 0 1 -9.4746 -15)" class="st2 st3">link</text>
	</g>
	<g transform="translate(-637.5,160)">
		<circle class="st1" cx="0" cy="0" r="10"/>
		<text transform="matrix(1 0 0 1 -9.4746 -15)" class="st2 st3">link</text>
	</g>
	<g transform="translate(-387.5,240)">
		<circle class="st1" cx="0" cy="0" r="10"/>
		<text transform="matrix(1 0 0 1 -22.9131 -15)" class="st2 st3">img.logo</text>
	</g>
	<g transform="translate(-287.5,240)">
		<circle class="st1" cx="0" cy="0" r="10"/>
		<text transform="matrix(1 0 0 1 -7.9465 -15)" class="st2 st3">div</text>
	</g>
	<g transform="translate(-287.5,320)">
		<circle class="st1" cx="0" cy="0" r="10"/>
		<text transform="matrix(1 0 0 1 -9.4773 -15)" class="st2 st3">nav</text>
	</g>
	<g transform="translate(-287.5,400)">
		<circle class="st1" cx="0" cy="0" r="10"/>
		<text transform="matrix(1 0 0 1 -28.7273 -15)" class="st2 st3">ul.Red-Nav</text>
	</g>
	<g transform="translate(-437.5,480)">
		<circle class="st1" cx="0" cy="0" r="10"/>
		<text transform="matrix(1 0 0 1 -3.0562 -15)" class="st2 st3">li</text>
	</g>
	<g transform="translate(-437.5,560)">
		<circle class="st1" cx="0" cy="0" r="10"/>
		<text transform="matrix(1 0 0 1 -3.0588 -15)" class="st2 st3">a</text>
	</g>
	<g transform="translate(-437.5,640)">
		<circle class="st4" cx="0" cy="0" r="10"/>
		<text transform="matrix(1 0 0 1 -12.8396 -15)" class="st2 st3">#text</text>
	</g>
	<g transform="translate(-337.5,480)">
		<circle class="st1" cx="0" cy="0" r="10"/>
		<text transform="matrix(1 0 0 1 -3.0562 -15)" class="st2 st3">li</text>
	</g>
	<g transform="translate(-337.5,560)">
		<circle class="st1" cx="0" cy="0" r="10"/>
		<text transform="matrix(1 0 0 1 -3.0588 -15)" class="st2 st3">a</text>
	</g>
	<g transform="translate(-337.5,640)">
		<circle class="st4" cx="0" cy="0" r="10"/>
		<text transform="matrix(1 0 0 1 -12.8396 -15)" class="st2 st3">#text</text>
	</g>
	<g transform="translate(-237.5,480)">
		<circle class="st1" cx="0" cy="0" r="10"/>
		<text transform="matrix(1 0 0 1 -3.0562 -15)" class="st2 st3">li</text>
	</g>
	<g transform="translate(-237.5,560)">
		<circle class="st1" cx="0" cy="0" r="10"/>
		<text transform="matrix(1 0 0 1 -3.0588 -15)" class="st2 st3">a</text>
	</g>
	<g transform="translate(-237.5,640)">
		<circle class="st4" cx="0" cy="0" r="10"/>
		<text transform="matrix(1 0 0 1 -12.8396 -15)" class="st2 st3">#text</text>
	</g>
	<g transform="translate(-137.5,480)">
		<circle class="st1" cx="0" cy="0" r="10"/>
		<text transform="matrix(1 0 0 1 -3.0562 -15)" class="st2 st3">li</text>
	</g>
	<g transform="translate(-137.5,560)">
		<circle class="st1" cx="0" cy="0" r="10"/>
		<text transform="matrix(1 0 0 1 -3.0588 -15)" class="st2 st3">a</text>
	</g>
	<g transform="translate(-137.5,640)">
		<circle class="st4" cx="0" cy="0" r="10"/>
		<text transform="matrix(1 0 0 1 -12.8396 -15)" class="st2 st3">#text</text>
	</g>
	<g transform="translate(-87.5,240)">
		<circle class="st1" cx="0" cy="0" r="10"/>
		<text transform="matrix(1 0 0 1 -49.0945 -15)" class="st2 st3">div.banner-content</text>
	</g>
	<g transform="translate(-87.5,320)">
		<circle class="st1" cx="0" cy="0" r="10"/>
		<text transform="matrix(1 0 0 1 -6.4185 -15)" class="st2 st3">h1</text>
	</g>
	<g transform="translate(-87.5,400)">
		<circle class="st4" cx="0" cy="0" r="10"/>
		<text transform="matrix(1 0 0 1 -12.8396 -15)" class="st2 st3">#text</text>
	</g>
	<g transform="translate(868.75,160)">
		<circle class="st1" cx="0" cy="0" r="10"/>
		<text transform="matrix(1 0 0 1 -59.5923 -15)" class="st2 st3">section.container-form</text>
	</g>
	<g transform="translate(387.5,240)">
		<circle class="st1" cx="0" cy="0" r="10"/>
		<text transform="matrix(1 0 0 1 -32.8979 -15)" class="st2 st3">div.form-box</text>
	</g>
	<g transform="translate(112.5,320)">
		<circle class="st1" cx="0" cy="0" r="10"/>
		<text transform="matrix(1 0 0 1 -6.4185 -15)" class="st2 st3">h2</text>
	</g>
	<g transform="translate(112.5,400)">
		<circle class="st4" cx="0" cy="0" r="10"/>
		<text transform="matrix(1 0 0 1 -12.8396 -15)" class="st2 st3">#text</text>
	</g>
	<g transform="translate(662.5,320)">
		<circle class="st1" cx="0" cy="0" r="10"/>
		<text transform="matrix(1 0 0 1 -12.2219 -15)" class="st2 st3">form</text>
	</g>
	<g transform="translate(262.5,400)">
		<circle class="st1" cx="0" cy="0" r="10"/>
		<text transform="matrix(1 0 0 1 -12.5334 -15)" class="st2 st3">label</text>
	</g>
	<g transform="translate(262.5,480)">
		<circle class="st4" cx="0" cy="0" r="10"/>
		<text transform="matrix(1 0 0 1 -12.8396 -15)" class="st2 st3">#text</text>
	</g>
	<g transform="translate(362.5,400)">
		<circle class="st1" cx="0" cy="0" r="10"/>
		<text transform="matrix(1 0 0 1 -30.865 -15)" class="st2 st3">input#name</text>
	</g>
	<g transform="translate(462.5,400)">
		<circle class="st1" cx="0" cy="0" r="10"/>
		<text transform="matrix(1 0 0 1 -12.5334 -15)" class="st2 st3">label</text>
	</g>
	<g transform="translate(462.5,480)">
		<circle class="st4" cx="0" cy="0" r="10"/>
		<text transform="matrix(1 0 0 1 -12.8396 -15)" class="st2 st3">#text</text>
	</g>
	<g transform="translate(562.5,400)">
		<circle class="st1" cx="0" cy="0" r="10"/>
		<text transform="matrix(1 0 0 1 -30.5615 -15)" class="st2 st3">input#email</text>
	</g>
	<g transform="translate(662.5,400)">
		<circle class="st1" cx="0" cy="0" r="10"/>
		<text transform="matrix(1 0 0 1 -12.5334 -15)" class="st2 st3">label</text>
	</g>
	<g transform="translate(662.5,480)">
		<circle class="st4" cx="0" cy="0" r="10"/>
		<text transform="matrix(1 0 0 1 -12.8396 -15)" class="st2 st3">#text</text>
	</g>
	<g transform="translate(762.5,400)">
		<circle class="st1" cx="0" cy="0" r="10"/>
		<text transform="matrix(1 0 0 1 -32.9946 -15)" class="st2 st3">input#phone</text>
	</g>
	<g transform="translate(862.5,400)">
		<circle class="st1" cx="0" cy="0" r="10"/>
		<text transform="matrix(1 0 0 1 -12.5334 -15)" class="st2 st3">label</text>
	</g>
	<g transform="translate(862.5,480)">
		<circle class="st4" cx="0" cy="0" r="10"/>
		<text transform="matrix(1 0 0 1 -12.8396 -15)" class="st2 st3">#text</text>
	</g>
	<g transform="translate(962.5,400)">
		<circle class="st1" cx="0" cy="0" r="10"/>
		<text transform="matrix(1 0 0 1 -47.7007 -15)" class="st2 st3">textarea#message</text>
	</g>
	<g transform="translate(1062.5,400)">
		<circle class="st1" cx="0" cy="0" r="10"/>
		<text transform="matrix(1 0 0 1 -17.1016 -15)" class="st2 st3">button</text>
	</g>
	<g transform="translate(1062.5,480)">
		<circle class="st4" cx="0" cy="0" r="10"/>
		<text transform="matrix(1 0 0 1 -12.8396 -15)" class="st2 st3">#text</text>
	</g>
	<g transform="translate(1400,240)">
		<circle class="st1" cx="0" cy="0" r="10"/>
		<text transform="matrix(1 0 0 1 -44.8218 -15)" class="st2 st3">div.company-box</text>
	</g>
	<g transform="translate(1212.5,320)">
		<circle class="st1" cx="0" cy="0" r="10"/>
		<text transform="matrix(1 0 0 1 -6.4185 -15)" class="st2 st3">h2</text>
	</g>
	<g transform="translate(1212.5,400)">
		<circle class="st4" cx="0" cy="0" r="10"/>
		<text transform="matrix(1 0 0 1 -12.8396 -15)" class="st2 st3">#text</text>
	</g>
	<g transform="translate(1587.5,320)">
		<circle class="st1" cx="0" cy="0" r="10"/>
		<text transform="matrix(1 0 0 1 -4.8877 -15)" class="st2 st3">ul</text>
	</g>
	<g transform="translate(1362.5,400)">
		<circle class="st1" cx="0" cy="0" r="10"/>
		<text transform="matrix(1 0 0 1 -3.0562 -15)" class="st2 st3">li</text>
	</g>
	<g transform="translate(1337.5,480)">
		<circle class="st1" cx="0" cy="0" r="10"/>
		<text transform="matrix(1 0 0 1 -42.77 -15)" class="st2 st3">i.fa.fa-building-o</text>
	</g>
	<g transform="translate(1387.5,480)">
		<circle class="st4" cx="0" cy="0" r="10"/>
		<text transform="matrix(1 0 0 1 -12.8396 -15)" class="st2 st3">#text</text>
	</g>
	<g transform="translate(1512.5,400)">
		<circle class="st1" cx="0" cy="0" r="10"/>
		<text transform="matrix(1 0 0 1 -3.0562 -15)" class="st2 st3">li</text>
	</g>
	<g transform="translate(1487.5,480)">
		<circle class="st1" cx="0" cy="0" r="10"/>
		<text transform="matrix(1 0 0 1 -47.6846 -15)" class="st2 st3">i.fa.fa-map-marker</text>
	</g>
	<g transform="translate(1537.5,480)">
		<circle class="st4" cx="0" cy="0" r="10"/>
		<text transform="matrix(1 0 0 1 -12.8396 -15)" class="st2 st3">#text</text>
	</g>
	<g transform="translate(1662.5,400)">
		<circle class="st1" cx="0" cy="0" r="10"/>
		<text transform="matrix(1 0 0 1 -3.0562 -15)" class="st2 st3">li</text>
	</g>
	<g transform="translate(1637.5,480)">
		<circle class="st1" cx="0" cy="0" r="10"/>
		<text transform="matrix(1 0 0 1 -32.6938 -15)" class="st2 st3">i.fa.fa-phone</text>
	</g>
	<g transform="translate(1687.5,480)">
		<circle class="st4" cx="0" cy="0" r="10"/>
		<text transform="matrix(1 0 0 1 -12.8396 -15)" class="st2 st3">#text</text>
	</g>
	<g transform="translate(1812.5,400)">
		<circle class="st1" cx="0" cy="0" r="10"/>
		<text transform="matrix(1 0 0 1 -3.0562 -15)" class="st2 st3">li</text>
	</g>
	<g transform="translate(1787.5,480)">
		<circle class="st1" cx="0" cy="0" r="10"/>
		<text transform="matrix(1 0 0 1 -40.0388 -15)" class="st2 st3">i.fa.fa-envelope</text>
	</g>
	<g transform="translate(1837.5,480)">
		<circle class="st4" cx="0" cy="0" r="10"/>
		<text transform="matrix(1 0 0 1 -12.8396 -15)" class="st2 st3">#text</text>
	</g>
	<g transform="translate(2212.5,160)">
		<circle class="st1" cx="0" cy="0" r="10"/>
		<text transform="matrix(1 0 0 1 -15.5815 -15)" class="st2 st3">footer</text>
	</g>
	<g transform="translate(2012.5,240)">
		<circle class="st1" cx="0" cy="0" r="10"/>
		<text transform="matrix(1 0 0 1 -52.7549 -15)" class="st2 st3">div.contenido-footer</text>
	</g>
	<g transform="translate(1962.5,320)">
		<circle class="st1" cx="0" cy="0" r="10"/>
		<text transform="matrix(1 0 0 1 -6.4185 -15)" class="st2 st3">h3</text>
	</g>
	<g transform="translate(1962.5,400)">
		<circle class="st4" cx="0" cy="0" r="10"/>
		<text transform="matrix(1 0 0 1 -12.8396 -15)" class="st2 st3">#text</text>
	</g>
	<g transform="translate(2062.5,320)">
		<circle class="st1" cx="0" cy="0" r="10"/>
		<text transform="matrix(1 0 0 1 -3.3596 -15)" class="st2 st3">p</text>
	</g>
	<g transform="translate(2062.5,400)">
		<circle class="st4" cx="0" cy="0" r="10"/>
		<text transform="matrix(1 0 0 1 -12.8396 -15)" class="st2 st3">#text</text>
	</g>
	<g transform="translate(2412.5,240)">
		<circle class="st1" cx="0" cy="0" r="10"/>
		<text transform="matrix(1 0 0 1 -28.1257 -15)" class="st2 st3">ul.sociales</text>
	</g>
	<g transform="translate(2262.5,320)">
		<circle class="st1" cx="0" cy="0" r="10"/>
		<text transform="matrix(1 0 0 1 -3.0562 -15)" class="st2 st3">li</text>
	</g>
	<g transform="translate(2262.5,400)">
		<circle class="st1" cx="0" cy="0" r="10"/>
		<text transform="matrix(1 0 0 1 -41.873 -15)" class="st2 st3">a.fa.fa-facebook</text>
	</g>
	<g transform="translate(2362.5,320)">
		<circle class="st1" cx="0" cy="0" r="10"/>
		<text transform="matrix(1 0 0 1 -3.0562 -15)" class="st2 st3">li</text>
	</g>
	<g transform="translate(2362.5,400)">
		<circle class="st1" cx="0" cy="0" r="10"/>
		<text transform="matrix(1 0 0 1 -44.0134 -15)" class="st2 st3">a.fa.fa-instagram</text>
	</g>
	<g transform="translate(2462.5,320)">
		<circle class="st1" cx="0" cy="0" r="10"/>
		<text transform="matrix(1 0 0 1 -3.0562 -15)" class="st2 st3">li</text>
	</g>
	<g transform="translate(2462.5,400)">
		<circle class="st1" cx="0" cy="0" r="10"/>
		<text transform="matrix(1 0 0 1 -34.2273 -15)" class="st2 st3">a.fa.fa-twitter</text>
	</g>
	<g transform="translate(2562.5,320)">
		<circle class="st1" cx="0" cy="0" r="10"/>
		<text transform="matrix(1 0 0 1 -3.0562 -15)" class="st2 st3">li</text>
	</g>
	<g transform="translate(2562.5,400)">
		<circle class="st1" cx="0" cy="0" r="10"/>
		<text transform="matrix(1 0 0 1 -39.115 -15)" class="st2 st3">a.fa.fa-youtube</text>
	</g>
</g>
</svg>
