<?xml version="1.0" encoding="utf-8"?>
<!-- Generator: Adobe Illustrator 25.2.1, SVG Export Plug-In . SVG Version: 6.00 Build 0)  -->
<svg version="1.1" xmlns="http://www.w3.org/2000/svg" xmlns:xlink="http://www.w3.org/1999/xlink" x="0px" y="0px"
	 viewBox="0 0 5395 685" style="enable-background:new 0 0 5395 685;" xml:space="preserve">
<style type="text/css">
	.st0{fill:#FFFFFF;stroke:#CCCCCC;}
	.st1{fill:none;stroke:#CCCCCC;}
	.st2{fill:#4682B4;stroke:#355E95;stroke-width:1.5;}
	.st3{font-family:'Arial-BoldMT';}
	.st4{font-size:11px;}
	.st5{fill:#50B456;stroke:#0D952C;stroke-width:1.5;}
</style>
<g id="Capa_2">
	<rect x="-1645" y="-458.1" class="st0" width="8294.4" height="2629.3"/>
</g>
<g id="Capa_1">
	<g transform="translate(1595,30)">
		<path class="st1" d="M0,0c0,40-1275,40-1275,80"/>
		<path class="st1" d="M0,0c0,40,1275,40,1275,80"/>
		<path class="st1" d="M-1275,80c0,40-150,40-150,80"/>
		<path class="st1" d="M-1275,80c0,40,50,40,50,80"/>
		<path class="st1" d="M-1225,160c0,40,0,40,0,80"/>
		<path class="st1" d="M1275,80c0,40-2000,40-2000,80"/>
		<path class="st1" d="M1275,80c0,40-1700,40-1700,80"/>
		<path class="st1" d="M-1275,80c0,40-250,40-250,80"/>
		<path class="st1" d="M-1275,80c0,40-50,40-50,80"/>
		<path class="st1" d="M-1275,80c0,40,150,40,150,80"/>
		<path class="st1" d="M-1275,80c0,40,250,40,250,80"/>
		<path class="st1" d="M1275,80c0,40-1175,40-1175,80"/>
		<path class="st1" d="M1275,80c0,40,2100,40,2100,80"/>
		<path class="st1" d="M-725,160c0,40-50,40-50,80"/>
		<path class="st1" d="M-725,160c0,40,50,40,50,80"/>
		<path class="st1" d="M-675,240c0,40,0,40,0,80"/>
		<path class="st1" d="M-675,320c0,40,0,40,0,80"/>
		<path class="st1" d="M-675,400c0,40-150,40-150,80"/>
		<path class="st1" d="M-675,400c0,40-50,40-50,80"/>
		<path class="st1" d="M-675,400c0,40,50,40,50,80"/>
		<path class="st1" d="M-675,400c0,40,150,40,150,80"/>
		<path class="st1" d="M-825,480c0,40,0,40,0,80"/>
		<path class="st1" d="M-825,560c0,40,0,40,0,80"/>
		<path class="st1" d="M-725,480c0,40,0,40,0,80"/>
		<path class="st1" d="M-725,560c0,40,0,40,0,80"/>
		<path class="st1" d="M-625,480c0,40,0,40,0,80"/>
		<path class="st1" d="M-625,560c0,40,0,40,0,80"/>
		<path class="st1" d="M-525,480c0,40,0,40,0,80"/>
		<path class="st1" d="M-525,560c0,40,0,40,0,80"/>
		<path class="st1" d="M-425,160c0,40,0,40,0,80"/>
		<path class="st1" d="M-425,240c0,40,50,40,50,80"/>
		<path class="st1" d="M-375,320c0,40,0,40,0,80"/>
		<path class="st1" d="M100,160c0,40,325,40,325,80"/>
		<path class="st1" d="M425,240c0,40,0,40,0,80"/>
		<path class="st1" d="M425,240c0,40,500,40,500,80"/>
		<path class="st1" d="M925,320c0,40-50,40-50,80"/>
		<path class="st1" d="M925,320c0,40,150,40,150,80"/>
		<path class="st1" d="M875,400c0,40,0,40,0,80"/>
		<path class="st1" d="M1075,400c0,40,0,40,0,80"/>
		<path class="st1" d="M3375,160c0,40-200,40-200,80"/>
		<path class="st1" d="M3375,160c0,40,200,40,200,80"/>
		<path class="st1" d="M3175,240c0,40-50,40-50,80"/>
		<path class="st1" d="M3175,240c0,40,50,40,50,80"/>
		<path class="st1" d="M3125,320c0,40,0,40,0,80"/>
		<path class="st1" d="M3225,320c0,40,0,40,0,80"/>
		<path class="st1" d="M3575,240c0,40-150,40-150,80"/>
		<path class="st1" d="M3575,240c0,40-50,40-50,80"/>
		<path class="st1" d="M3575,240c0,40,50,40,50,80"/>
		<path class="st1" d="M3575,240c0,40,150,40,150,80"/>
		<path class="st1" d="M3425,320c0,40,0,40,0,80"/>
		<path class="st1" d="M3525,320c0,40,0,40,0,80"/>
		<path class="st1" d="M3625,320c0,40,0,40,0,80"/>
		<path class="st1" d="M3725,320c0,40,0,40,0,80"/>
		<path class="st1" d="M1275,80c0,40,125,40,125,80"/>
		<path class="st1" d="M1275,80c0,40,1237.5,40,1237.5,80"/>
		<path class="st1" d="M-425,240c0,40-50,40-50,80"/>
		<path class="st1" d="M-475,320c0,40,0,40,0,80"/>
		<path class="st1" d="M100,160c0,40-325,40-325,80"/>
		<path class="st1" d="M-225,240c0,40,0,40,0,80"/>
		<path class="st1" d="M425,240c0,40-500,40-500,80"/>
		<path class="st1" d="M-75,320c0,40-150,40-150,80"/>
		<path class="st1" d="M-75,320c0,40-50,40-50,80"/>
		<path class="st1" d="M-75,320c0,40,50,40,50,80"/>
		<path class="st1" d="M-75,320c0,40,150,40,150,80"/>
		<path class="st1" d="M-125,400c0,40,0,40,0,80"/>
		<path class="st1" d="M-25,400c0,40,0,40,0,80"/>
		<path class="st1" d="M75,400c0,40,0,40,0,80"/>
		<path class="st1" d="M425,320c0,40-150,40-150,80"/>
		<path class="st1" d="M425,320c0,40-50,40-50,80"/>
		<path class="st1" d="M425,320c0,40,50,40,50,80"/>
		<path class="st1" d="M425,320c0,40,150,40,150,80"/>
		<path class="st1" d="M375,400c0,40,0,40,0,80"/>
		<path class="st1" d="M475,400c0,40,0,40,0,80"/>
		<path class="st1" d="M575,400c0,40,0,40,0,80"/>
		<path class="st1" d="M925,320c0,40-150,40-150,80"/>
		<path class="st1" d="M925,320c0,40,50,40,50,80"/>
		<path class="st1" d="M975,400c0,40,0,40,0,80"/>
		<path class="st1" d="M1400,160c0,40-225,40-225,80"/>
		<path class="st1" d="M1400,160c0,40,225,40,225,80"/>
		<path class="st1" d="M1175,240c0,40,0,40,0,80"/>
		<path class="st1" d="M1625,240c0,40-300,40-300,80"/>
		<path class="st1" d="M1625,240c0,40,0,40,0,80"/>
		<path class="st1" d="M1625,240c0,40,300,40,300,80"/>
		<path class="st1" d="M1325,320c0,40-50,40-50,80"/>
		<path class="st1" d="M1325,320c0,40,50,40,50,80"/>
		<path class="st1" d="M1275,400c0,40,0,40,0,80"/>
		<path class="st1" d="M1625,320c0,40-50,40-50,80"/>
		<path class="st1" d="M1625,320c0,40,50,40,50,80"/>
		<path class="st1" d="M1925,320c0,40-50,40-50,80"/>
		<path class="st1" d="M1925,320c0,40,50,40,50,80"/>
		<path class="st1" d="M1875,400c0,40,0,40,0,80"/>
		<path class="st1" d="M2512.5,160c0,40-237.5,40-237.5,80"/>
		<path class="st1" d="M2512.5,160c0,40,237.5,40,237.5,80"/>
		<path class="st1" d="M2275,240c0,40-150,40-150,80"/>
		<path class="st1" d="M2275,240c0,40-50,40-50,80"/>
		<path class="st1" d="M2275,240c0,40,50,40,50,80"/>
		<path class="st1" d="M2275,240c0,40,150,40,150,80"/>
		<path class="st1" d="M2125,320c0,40,0,40,0,80"/>
		<path class="st1" d="M2225,320c0,40,0,40,0,80"/>
		<path class="st1" d="M2325,320c0,40,0,40,0,80"/>
		<path class="st1" d="M2750,240c0,40-125,40-125,80"/>
		<path class="st1" d="M2750,240c0,40,125,40,125,80"/>
		<path class="st1" d="M2625,320c0,40,0,40,0,80"/>
		<path class="st1" d="M2875,320c0,40-100,40-100,80"/>
		<path class="st1" d="M2875,320c0,40,0,40,0,80"/>
		<path class="st1" d="M2875,320c0,40,100,40,100,80"/>
		<path class="st1" d="M2775,400c0,40,0,40,0,80"/>
		<path class="st1" d="M2875,400c0,40,0,40,0,80"/>
		<path class="st1" d="M2975,400c0,40,0,40,0,80"/>
		<g transform="translate(0,0)">
			<circle class="st2" cx="0" cy="0" r="10"/>
			<text transform="matrix(1 0 0 1 -11.6096 -15)" class="st3 st4">html</text>
		</g>
		<g transform="translate(-1275,80)">
			<circle class="st2" cx="0" cy="0" r="10"/>
			<text transform="matrix(1 0 0 1 -12.8369 -15)" class="st3 st4">head</text>
		</g>
		<g transform="translate(-1425,160)">
			<circle class="st2" cx="0" cy="0" r="10"/>
			<text transform="matrix(1 0 0 1 -12.8396 -15)" class="st3 st4">meta</text>
		</g>
		<g transform="translate(-1225,160)">
			<circle class="st2" cx="0" cy="0" r="10"/>
			<text transform="matrix(1 0 0 1 -9.7781 -15)" class="st3 st4">title</text>
		</g>
		<g transform="translate(-1225,240)">
			<circle class="st5" cx="0" cy="0" r="10"/>
			<text transform="matrix(1 0 0 1 -12.8396 -15)" class="st3 st4">#text</text>
		</g>
		<g transform="translate(1275,80)">
			<circle class="st2" cx="0" cy="0" r="10"/>
			<text transform="matrix(1 0 0 1 -13.1377 -15)" class="st3 st4">body</text>
		</g>
		<g transform="translate(-725,160)">
			<circle class="st2" cx="0" cy="0" r="10"/>
			<text transform="matrix(1 0 0 1 -37.2969 -15)" class="st3 st4">header.header</text>
		</g>
		<g transform="translate(-425,160)">
			<circle class="st2" cx="0" cy="0" r="10"/>
			<text transform="matrix(1 0 0 1 -55.3142 -15)" class="st3 st4">section.banner-inicio</text>
		</g>
		<g transform="translate(-1525,160)">
			<circle class="st2" cx="0" cy="0" r="10"/>
			<text transform="matrix(1 0 0 1 -12.8396 -15)" class="st3 st4">meta</text>
		</g>
		<g transform="translate(-1325,160)">
			<circle class="st2" cx="0" cy="0" r="10"/>
			<text transform="matrix(1 0 0 1 -12.8396 -15)" class="st3 st4">meta</text>
		</g>
		<g transform="translate(-1125,160)">
			<circle class="st2" cx="0" cy="0" r="10"/>
			<text transform="matrix(1 0 0 1 -9.4746 -15)" class="st3 st4">link</text>
		</g>
		<g transform="translate(-1025,160)">
			<circle class="st2" cx="0" cy="0" r="10"/>
			<text transform="matrix(1 0 0 1 -9.4746 -15)" class="st3 st4">link</text>
		</g>
		<g transform="translate(-775,240)">
			<circle class="st2" cx="0" cy="0" r="10"/>
			<text transform="matrix(1 0 0 1 -22.9131 -15)" class="st3 st4">img.logo</text>
		</g>
		<g transform="translate(-675,240)">
			<circle class="st2" cx="0" cy="0" r="10"/>
			<text transform="matrix(1 0 0 1 -7.9465 -15)" class="st3 st4">div</text>
		</g>
		<g transform="translate(-675,320)">
			<circle class="st2" cx="0" cy="0" r="10"/>
			<text transform="matrix(1 0 0 1 -9.4773 -15)" class="st3 st4">nav</text>
		</g>
		<g transform="translate(-675,400)">
			<circle class="st2" cx="0" cy="0" r="10"/>
			<text transform="matrix(1 0 0 1 -28.7273 -15)" class="st3 st4">ul.Red-Nav</text>
		</g>
		<g transform="translate(-825,480)">
			<circle class="st2" cx="0" cy="0" r="10"/>
			<text transform="matrix(1 0 0 1 -3.0562 -15)" class="st3 st4">li</text>
		</g>
		<g transform="translate(-825,560)">
			<circle class="st2" cx="0" cy="0" r="10"/>
			<text transform="matrix(1 0 0 1 -3.0588 -15)" class="st3 st4">a</text>
		</g>
		<g transform="translate(-825,640)">
			<circle class="st5" cx="0" cy="0" r="10"/>
			<text transform="matrix(1 0 0 1 -12.8396 -15)" class="st3 st4">#text</text>
		</g>
		<g transform="translate(-725,480)">
			<circle class="st2" cx="0" cy="0" r="10"/>
			<text transform="matrix(1 0 0 1 -3.0562 -15)" class="st3 st4">li</text>
		</g>
		<g transform="translate(-725,560)">
			<circle class="st2" cx="0" cy="0" r="10"/>
			<text transform="matrix(1 0 0 1 -3.0588 -15)" class="st3 st4">a</text>
		</g>
		<g transform="translate(-725,640)">
			<circle class="st5" cx="0" cy="0" r="10"/>
			<text transform="matrix(1 0 0 1 -12.8396 -15)" class="st3 st4">#text</text>
		</g>
		<g transform="translate(-625,480)">
			<circle class="st2" cx="0" cy="0" r="10"/>
			<text transform="matrix(1 0 0 1 -3.0562 -15)" class="st3 st4">li</text>
		</g>
		<g transform="translate(-625,560)">
			<circle class="st2" cx="0" cy="0" r="10"/>
			<text transform="matrix(1 0 0 1 -3.0588 -15)" class="st3 st4">a</text>
		</g>
		<g transform="translate(-625,640)">
			<circle class="st5" cx="0" cy="0" r="10"/>
			<text transform="matrix(1 0 0 1 -12.8396 -15)" class="st3 st4">#text</text>
		</g>
		<g transform="translate(-525,480)">
			<circle class="st2" cx="0" cy="0" r="10"/>
			<text transform="matrix(1 0 0 1 -3.0562 -15)" class="st3 st4">li</text>
		</g>
		<g transform="translate(-525,560)">
			<circle class="st2" cx="0" cy="0" r="10"/>
			<text transform="matrix(1 0 0 1 -3.0588 -15)" class="st3 st4">a</text>
		</g>
		<g transform="translate(-525,640)">
			<circle class="st5" cx="0" cy="0" r="10"/>
			<text transform="matrix(1 0 0 1 -12.8396 -15)" class="st3 st4">#text</text>
		</g>
		<g transform="translate(-425,240)">
			<circle class="st2" cx="0" cy="0" r="10"/>
			<text transform="matrix(1 0 0 1 -55.5103 -15)" class="st3 st4">div.contenido-banner</text>
		</g>
		<g transform="translate(-375,320)">
			<circle class="st2" cx="0" cy="0" r="10"/>
			<text transform="matrix(1 0 0 1 -6.4185 -15)" class="st3 st4">h2</text>
		</g>
		<g transform="translate(-375,400)">
			<circle class="st5" cx="0" cy="0" r="10"/>
			<text transform="matrix(1 0 0 1 -12.8396 -15)" class="st3 st4">#text</text>
		</g>
		<g transform="translate(100,160)">
			<circle class="st2" cx="0" cy="0" r="10"/>
			<text transform="matrix(1 0 0 1 -69.6899 -15)" class="st3 st4">section.principal-recientes</text>
		</g>
		<g transform="translate(425,240)">
			<circle class="st2" cx="0" cy="0" r="10"/>
			<text transform="matrix(1 0 0 1 -46.9622 -15)" class="st3 st4">div.computadoras</text>
		</g>
		<g transform="translate(425,320)">
			<circle class="st2" cx="0" cy="0" r="10"/>
			<text transform="matrix(1 0 0 1 -43.9033 -15)" class="st3 st4">div.computadora</text>
		</g>
		<g transform="translate(925,320)">
			<circle class="st2" cx="0" cy="0" r="10"/>
			<text transform="matrix(1 0 0 1 -43.9033 -15)" class="st3 st4">div.computadora</text>
		</g>
		<g transform="translate(875,400)">
			<circle class="st2" cx="0" cy="0" r="10"/>
			<text transform="matrix(1 0 0 1 -6.4185 -15)" class="st3 st4">h2</text>
		</g>
		<g transform="translate(875,480)">
			<circle class="st5" cx="0" cy="0" r="10"/>
			<text transform="matrix(1 0 0 1 -12.8396 -15)" class="st3 st4">#text</text>
		</g>
		<g transform="translate(1075,400)">
			<circle class="st2" cx="0" cy="0" r="10"/>
			<text transform="matrix(1 0 0 1 -3.0588 -15)" class="st3 st4">a</text>
		</g>
		<g transform="translate(1075,480)">
			<circle class="st5" cx="0" cy="0" r="10"/>
			<text transform="matrix(1 0 0 1 -12.8396 -15)" class="st3 st4">#text</text>
		</g>
		<g transform="translate(3375,160)">
			<circle class="st2" cx="0" cy="0" r="10"/>
			<text transform="matrix(1 0 0 1 -15.5815 -15)" class="st3 st4">footer</text>
		</g>
		<g transform="translate(3175,240)">
			<circle class="st2" cx="0" cy="0" r="10"/>
			<text transform="matrix(1 0 0 1 -52.7549 -15)" class="st3 st4">div.contenido-footer</text>
		</g>
		<g transform="translate(3125,320)">
			<circle class="st2" cx="0" cy="0" r="10"/>
			<text transform="matrix(1 0 0 1 -6.4185 -15)" class="st3 st4">h3</text>
		</g>
		<g transform="translate(3125,400)">
			<circle class="st5" cx="0" cy="0" r="10"/>
			<text transform="matrix(1 0 0 1 -12.8398 -15)" class="st3 st4">#text</text>
		</g>
		<g transform="translate(3225,320)">
			<circle class="st2" cx="0" cy="0" r="10"/>
			<text transform="matrix(1 0 0 1 -3.3599 -15)" class="st3 st4">p</text>
		</g>
		<g transform="translate(3225,400)">
			<circle class="st5" cx="0" cy="0" r="10"/>
			<text transform="matrix(1 0 0 1 -12.8398 -15)" class="st3 st4">#text</text>
		</g>
		<g transform="translate(3575,240)">
			<circle class="st2" cx="0" cy="0" r="10"/>
			<text transform="matrix(1 0 0 1 -28.126 -15)" class="st3 st4">ul.sociales</text>
		</g>
		<g transform="translate(3425,320)">
			<circle class="st2" cx="0" cy="0" r="10"/>
			<text transform="matrix(1 0 0 1 -3.0562 -15)" class="st3 st4">li</text>
		</g>
		<g transform="translate(3425,400)">
			<circle class="st2" cx="0" cy="0" r="10"/>
			<text transform="matrix(1 0 0 1 -41.873 -15)" class="st3 st4">a.fa.fa-facebook</text>
		</g>
		<g transform="translate(3525,320)">
			<circle class="st2" cx="0" cy="0" r="10"/>
			<text transform="matrix(1 0 0 1 -3.0562 -15)" class="st3 st4">li</text>
		</g>
		<g transform="translate(3525,400)">
			<circle class="st2" cx="0" cy="0" r="10"/>
			<text transform="matrix(1 0 0 1 -44.0137 -15)" class="st3 st4">a.fa.fa-instagram</text>
		</g>
		<g transform="translate(3625,320)">
			<circle class="st2" cx="0" cy="0" r="10"/>
			<text transform="matrix(1 0 0 1 -3.0562 -15)" class="st3 st4">li</text>
		</g>
		<g transform="translate(3625,400)">
			<circle class="st2" cx="0" cy="0" r="10"/>
			<text transform="matrix(1 0 0 1 -34.2275 -15)" class="st3 st4">a.fa.fa-twitter</text>
		</g>
		<g transform="translate(3725,320)">
			<circle class="st2" cx="0" cy="0" r="10"/>
			<text transform="matrix(1 0 0 1 -3.0562 -15)" class="st3 st4">li</text>
		</g>
		<g transform="translate(3725,400)">
			<circle class="st2" cx="0" cy="0" r="10"/>
			<text transform="matrix(1 0 0 1 -39.1152 -15)" class="st3 st4">a.fa.fa-youtube</text>
		</g>
		<g transform="translate(-475,320)">
			<circle class="st2" cx="0" cy="0" r="10"/>
			<text transform="matrix(1 0 0 1 -6.4185 -15)" class="st3 st4">h1</text>
		</g>
		<g transform="translate(-475,400)">
			<circle class="st5" cx="0" cy="0" r="10"/>
			<text transform="matrix(1 0 0 1 -12.8396 -15)" class="st3 st4">#text</text>
		</g>
		<g transform="translate(-225,240)">
			<circle class="st2" cx="0" cy="0" r="10"/>
			<text transform="matrix(1 0 0 1 -6.4185 -15)" class="st3 st4">h1</text>
		</g>
		<g transform="translate(-225,320)">
			<circle class="st5" cx="0" cy="0" r="10"/>
			<text transform="matrix(1 0 0 1 -12.8396 -15)" class="st3 st4">#text</text>
		</g>
		<g transform="translate(-75,320)">
			<circle class="st2" cx="0" cy="0" r="10"/>
			<text transform="matrix(1 0 0 1 -43.9033 -15)" class="st3 st4">div.computadora</text>
		</g>
		<g transform="translate(-225,400)">
			<circle class="st2" cx="0" cy="0" r="10"/>
			<text transform="matrix(1 0 0 1 -9.7781 -15)" class="st3 st4">img</text>
		</g>
		<g transform="translate(-125,400)">
			<circle class="st2" cx="0" cy="0" r="10"/>
			<text transform="matrix(1 0 0 1 -6.4185 -15)" class="st3 st4">h2</text>
		</g>
		<g transform="translate(-125,480)">
			<circle class="st5" cx="0" cy="0" r="10"/>
			<text transform="matrix(1 0 0 1 -12.8396 -15)" class="st3 st4">#text</text>
		</g>
		<g transform="translate(-25,400)">
			<circle class="st2" cx="0" cy="0" r="10"/>
			<text transform="matrix(1 0 0 1 -3.3596 -15)" class="st3 st4">p</text>
		</g>
		<g transform="translate(-25,480)">
			<circle class="st5" cx="0" cy="0" r="10"/>
			<text transform="matrix(1 0 0 1 -12.8396 -15)" class="st3 st4">#text</text>
		</g>
		<g transform="translate(75,400)">
			<circle class="st2" cx="0" cy="0" r="10"/>
			<text transform="matrix(1 0 0 1 -3.0588 -15)" class="st3 st4">a</text>
		</g>
		<g transform="translate(75,480)">
			<circle class="st5" cx="0" cy="0" r="10"/>
			<text transform="matrix(1 0 0 1 -12.8396 -15)" class="st3 st4">#text</text>
		</g>
		<g transform="translate(275,400)">
			<circle class="st2" cx="0" cy="0" r="10"/>
			<text transform="matrix(1 0 0 1 -9.7781 -15)" class="st3 st4">img</text>
		</g>
		<g transform="translate(375,400)">
			<circle class="st2" cx="0" cy="0" r="10"/>
			<text transform="matrix(1 0 0 1 -6.4185 -15)" class="st3 st4">h2</text>
		</g>
		<g transform="translate(375,480)">
			<circle class="st5" cx="0" cy="0" r="10"/>
			<text transform="matrix(1 0 0 1 -12.8396 -15)" class="st3 st4">#text</text>
		</g>
		<g transform="translate(475,400)">
			<circle class="st2" cx="0" cy="0" r="10"/>
			<text transform="matrix(1 0 0 1 -3.3596 -15)" class="st3 st4">p</text>
		</g>
		<g transform="translate(475,480)">
			<circle class="st5" cx="0" cy="0" r="10"/>
			<text transform="matrix(1 0 0 1 -12.8396 -15)" class="st3 st4">#text</text>
		</g>
		<g transform="translate(575,400)">
			<circle class="st2" cx="0" cy="0" r="10"/>
			<text transform="matrix(1 0 0 1 -3.0588 -15)" class="st3 st4">a</text>
		</g>
		<g transform="translate(575,480)">
			<circle class="st5" cx="0" cy="0" r="10"/>
			<text transform="matrix(1 0 0 1 -12.8396 -15)" class="st3 st4">#text</text>
		</g>
		<g transform="translate(775,400)">
			<circle class="st2" cx="0" cy="0" r="10"/>
			<text transform="matrix(1 0 0 1 -9.7781 -15)" class="st3 st4">img</text>
		</g>
		<g transform="translate(975,400)">
			<circle class="st2" cx="0" cy="0" r="10"/>
			<text transform="matrix(1 0 0 1 -3.3596 -15)" class="st3 st4">p</text>
		</g>
		<g transform="translate(975,480)">
			<circle class="st5" cx="0" cy="0" r="10"/>
			<text transform="matrix(1 0 0 1 -12.8396 -15)" class="st3 st4">#text</text>
		</g>
		<g transform="translate(1400,160)">
			<circle class="st2" cx="0" cy="0" r="10"/>
			<text transform="matrix(1 0 0 1 -51.6565 -15)" class="st3 st4">section.user-videos</text>
		</g>
		<g transform="translate(1175,240)">
			<circle class="st2" cx="0" cy="0" r="10"/>
			<text transform="matrix(1 0 0 1 -6.4185 -15)" class="st3 st4">h1</text>
		</g>
		<g transform="translate(1175,320)">
			<circle class="st5" cx="0" cy="0" r="10"/>
			<text transform="matrix(1 0 0 1 -12.8396 -15)" class="st3 st4">#text</text>
		</g>
		<g transform="translate(1625,240)">
			<circle class="st2" cx="0" cy="0" r="10"/>
			<text transform="matrix(1 0 0 1 -26.4902 -15)" class="st3 st4">div.videos</text>
		</g>
		<g transform="translate(1325,320)">
			<circle class="st2" cx="0" cy="0" r="10"/>
			<text transform="matrix(1 0 0 1 -23.4314 -15)" class="st3 st4">div.video</text>
		</g>
		<g transform="translate(1275,400)">
			<circle class="st2" cx="0" cy="0" r="10"/>
			<text transform="matrix(1 0 0 1 -6.4185 -15)" class="st3 st4">h2</text>
		</g>
		<g transform="translate(1275,480)">
			<circle class="st5" cx="0" cy="0" r="10"/>
			<text transform="matrix(1 0 0 1 -12.8396 -15)" class="st3 st4">#text</text>
		</g>
		<g transform="translate(1375,400)">
			<circle class="st2" cx="0" cy="0" r="10"/>
			<text transform="matrix(1 0 0 1 -39.4292 -15)" class="st3 st4">iframe.videourl</text>
		</g>
		<g transform="translate(1625,320)">
			<circle class="st2" cx="0" cy="0" r="10"/>
			<text transform="matrix(1 0 0 1 -23.4314 -15)" class="st3 st4">div.video</text>
		</g>
		<g transform="translate(1575,400)">
			<circle class="st2" cx="0" cy="0" r="10"/>
			<text transform="matrix(1 0 0 1 -6.4185 -15)" class="st3 st4">h2</text>
		</g>
		<g transform="translate(1675,400)">
			<circle class="st2" cx="0" cy="0" r="10"/>
			<text transform="matrix(1 0 0 1 -39.4292 -15)" class="st3 st4">iframe.videourl</text>
		</g>
		<g transform="translate(1925,320)">
			<circle class="st2" cx="0" cy="0" r="10"/>
			<text transform="matrix(1 0 0 1 -23.4314 -15)" class="st3 st4">div.video</text>
		</g>
		<g transform="translate(1875,400)">
			<circle class="st2" cx="0" cy="0" r="10"/>
			<text transform="matrix(1 0 0 1 -6.4185 -15)" class="st3 st4">h2</text>
		</g>
		<g transform="translate(1875,480)">
			<circle class="st5" cx="0" cy="0" r="10"/>
			<text transform="matrix(1 0 0 1 -12.8396 -15)" class="st3 st4">#text</text>
		</g>
		<g transform="translate(1975,400)">
			<circle class="st2" cx="0" cy="0" r="10"/>
			<text transform="matrix(1 0 0 1 -16.5081 -15)" class="st3 st4">iframe</text>
		</g>
		<g transform="translate(2512.5,160)">
			<circle class="st2" cx="0" cy="0" r="10"/>
			<text transform="matrix(1 0 0 1 -45.5388 -15)" class="st3 st4">section.container</text>
		</g>
		<g transform="translate(2275,240)">
			<circle class="st2" cx="0" cy="0" r="10"/>
			<text transform="matrix(1 0 0 1 -46.4546 -15)" class="st3 st4">section.ubicacion</text>
		</g>
		<g transform="translate(2125,320)">
			<circle class="st2" cx="0" cy="0" r="10"/>
			<text transform="matrix(1 0 0 1 -6.4185 -15)" class="st3 st4">h2</text>
		</g>
		<g transform="translate(2125,400)">
			<circle class="st5" cx="0" cy="0" r="10"/>
			<text transform="matrix(1 0 0 1 -12.8396 -15)" class="st3 st4">#text</text>
		</g>
		<g transform="translate(2225,320)">
			<circle class="st2" cx="0" cy="0" r="10"/>
			<text transform="matrix(1 0 0 1 -3.3596 -15)" class="st3 st4">p</text>
		</g>
		<g transform="translate(2225,400)">
			<circle class="st5" cx="0" cy="0" r="10"/>
			<text transform="matrix(1 0 0 1 -12.8396 -15)" class="st3 st4">#text</text>
		</g>
		<g transform="translate(2325,320)">
			<circle class="st2" cx="0" cy="0" r="10"/>
			<text transform="matrix(1 0 0 1 -3.3596 -15)" class="st3 st4">p</text>
		</g>
		<g transform="translate(2325,400)">
			<circle class="st5" cx="0" cy="0" r="10"/>
			<text transform="matrix(1 0 0 1 -12.8396 -15)" class="st3 st4">#text</text>
		</g>
		<g transform="translate(2425,320)">
			<circle class="st2" cx="0" cy="0" r="10"/>
			<text transform="matrix(1 0 0 1 -42.1792 -15)" class="st3 st4">iframe.ubimedia</text>
		</g>
		<g transform="translate(2750,240)">
			<circle class="st2" cx="0" cy="0" r="10"/>
			<text transform="matrix(1 0 0 1 -37.5977 -15)" class="st3 st4">aside.horarios</text>
		</g>
		<g transform="translate(2625,320)">
			<circle class="st2" cx="0" cy="0" r="10"/>
			<text transform="matrix(1 0 0 1 -6.4185 -15)" class="st3 st4">h2</text>
		</g>
		<g transform="translate(2625,400)">
			<circle class="st5" cx="0" cy="0" r="10"/>
			<text transform="matrix(1 0 0 1 -12.8398 -15)" class="st3 st4">#text</text>
		</g>
		<g transform="translate(2875,320)">
			<circle class="st2" cx="0" cy="0" r="10"/>
			<text transform="matrix(1 0 0 1 -4.8877 -15)" class="st3 st4">ul</text>
		</g>
		<g transform="translate(2775,400)">
			<circle class="st2" cx="0" cy="0" r="10"/>
			<text transform="matrix(1 0 0 1 -3.0562 -15)" class="st3 st4">li</text>
		</g>
		<g transform="translate(2775,480)">
			<circle class="st5" cx="0" cy="0" r="10"/>
			<text transform="matrix(1 0 0 1 -12.8398 -15)" class="st3 st4">#text</text>
		</g>
		<g transform="translate(2875,400)">
			<circle class="st2" cx="0" cy="0" r="10"/>
			<text transform="matrix(1 0 0 1 -3.0562 -15)" class="st3 st4">li</text>
		</g>
		<g transform="translate(2875,480)">
			<circle class="st5" cx="0" cy="0" r="10"/>
			<text transform="matrix(1 0 0 1 -12.8398 -15)" class="st3 st4">#text</text>
		</g>
		<g transform="translate(2975,400)">
			<circle class="st2" cx="0" cy="0" r="10"/>
			<text transform="matrix(1 0 0 1 -3.0562 -15)" class="st3 st4">li</text>
		</g>
		<g transform="translate(2975,480)">
			<circle class="st5" cx="0" cy="0" r="10"/>
			<text transform="matrix(1 0 0 1 -12.8398 -15)" class="st3 st4">#text</text>
		</g>
	</g>
</g>
</svg>
