<?xml version="1.0" encoding="utf-8"?>
<!-- Generator: Adobe Illustrator 25.2.1, SVG Export Plug-In . SVG Version: 6.00 Build 0)  -->
<svg version="1.1" xmlns="http://www.w3.org/2000/svg" xmlns:xlink="http://www.w3.org/1999/xlink" x="0px" y="0px"
	 viewBox="0 0 4295 685" style="enable-background:new 0 0 4295 685;" xml:space="preserve">
<style type="text/css">
	.st0{fill:#FFFFFF;stroke:#CCCCCC;}
	.st1{fill:none;stroke:#CCCCCC;}
	.st2{fill:#4682B4;stroke:#355E95;stroke-width:1.5;}
	.st3{font-family:'Arial-BoldMT';}
	.st4{font-size:11px;}
	.st5{fill:#50B456;stroke:#0D952C;stroke-width:1.5;}
</style>
<g id="Capa_2">
	<rect x="-57" y="-150.2" class="st0" width="4530.3" height="1135.1"/>
</g>
<g id="Capa_1">
	<g transform="translate(1320,30)">
		<path class="st1" d="M0,0c0,40-1000,40-1000,80"/>
		<path class="st1" d="M0,0c0,40,1000,40,1000,80"/>
		<path class="st1" d="M-1000,80c0,40-50,40-50,80"/>
		<path class="st1" d="M-1000,80c0,40,50,40,50,80"/>
		<path class="st1" d="M-950,160c0,40,0,40,0,80"/>
		<path class="st1" d="M1000,80c0,40,1050,40,1050,80"/>
		<path class="st1" d="M1000,80c0,40,1550,40,1550,80"/>
		<path class="st1" d="M2550,160c0,40,200,40,200,80"/>
		<path class="st1" d="M-1000,80c0,40-250,40-250,80"/>
		<path class="st1" d="M-1000,80c0,40-150,40-150,80"/>
		<path class="st1" d="M-1000,80c0,40,150,40,150,80"/>
		<path class="st1" d="M-1000,80c0,40,250,40,250,80"/>
		<path class="st1" d="M1000,80c0,40-1450,40-1450,80"/>
		<path class="st1" d="M1000,80c0,40-1150,40-1150,80"/>
		<path class="st1" d="M1000,80c0,40-700,40-700,80"/>
		<path class="st1" d="M1000,80c0,40,175,40,175,80"/>
		<path class="st1" d="M-450,160c0,40-50,40-50,80"/>
		<path class="st1" d="M-450,160c0,40,50,40,50,80"/>
		<path class="st1" d="M-400,240c0,40,0,40,0,80"/>
		<path class="st1" d="M-400,320c0,40,0,40,0,80"/>
		<path class="st1" d="M-400,400c0,40-150,40-150,80"/>
		<path class="st1" d="M-400,400c0,40-50,40-50,80"/>
		<path class="st1" d="M-400,400c0,40,50,40,50,80"/>
		<path class="st1" d="M-400,400c0,40,150,40,150,80"/>
		<path class="st1" d="M-550,480c0,40,0,40,0,80"/>
		<path class="st1" d="M-550,560c0,40,0,40,0,80"/>
		<path class="st1" d="M-450,480c0,40,0,40,0,80"/>
		<path class="st1" d="M-450,560c0,40,0,40,0,80"/>
		<path class="st1" d="M-350,480c0,40,0,40,0,80"/>
		<path class="st1" d="M-350,560c0,40,0,40,0,80"/>
		<path class="st1" d="M-250,480c0,40,0,40,0,80"/>
		<path class="st1" d="M-250,560c0,40,0,40,0,80"/>
		<path class="st1" d="M-150,160c0,40,0,40,0,80"/>
		<path class="st1" d="M-150,240c0,40-50,40-50,80"/>
		<path class="st1" d="M-150,240c0,40,50,40,50,80"/>
		<path class="st1" d="M-200,320c0,40,0,40,0,80"/>
		<path class="st1" d="M-100,320c0,40,0,40,0,80"/>
		<path class="st1" d="M300,160c0,40,0,40,0,80"/>
		<path class="st1" d="M300,240c0,40-200,40-200,80"/>
		<path class="st1" d="M300,240c0,40-100,40-100,80"/>
		<path class="st1" d="M300,240c0,40,0,40,0,80"/>
		<path class="st1" d="M300,240c0,40,100,40,100,80"/>
		<path class="st1" d="M300,240c0,40,200,40,200,80"/>
		<path class="st1" d="M200,320c0,40,0,40,0,80"/>
		<path class="st1" d="M300,320c0,40,0,40,0,80"/>
		<path class="st1" d="M500,320c0,40,0,40,0,80"/>
		<path class="st1" d="M1175,160c0,40-525,40-525,80"/>
		<path class="st1" d="M1175,160c0,40-275,40-275,80"/>
		<path class="st1" d="M1175,160c0,40,125,40,125,80"/>
		<path class="st1" d="M1175,160c0,40,525,40,525,80"/>
		<path class="st1" d="M650,240c0,40,0,40,0,80"/>
		<path class="st1" d="M900,240c0,40-100,40-100,80"/>
		<path class="st1" d="M900,240c0,40,0,40,0,80"/>
		<path class="st1" d="M900,240c0,40,100,40,100,80"/>
		<path class="st1" d="M900,320c0,40,0,40,0,80"/>
		<path class="st1" d="M1000,320c0,40,0,40,0,80"/>
		<path class="st1" d="M1300,240c0,40-100,40-100,80"/>
		<path class="st1" d="M1300,240c0,40,0,40,0,80"/>
		<path class="st1" d="M1300,240c0,40,100,40,100,80"/>
		<path class="st1" d="M1300,320c0,40,0,40,0,80"/>
		<path class="st1" d="M1400,320c0,40,0,40,0,80"/>
		<path class="st1" d="M1700,240c0,40-100,40-100,80"/>
		<path class="st1" d="M1700,240c0,40,0,40,0,80"/>
		<path class="st1" d="M1700,240c0,40,100,40,100,80"/>
		<path class="st1" d="M1700,320c0,40,0,40,0,80"/>
		<path class="st1" d="M1800,320c0,40,0,40,0,80"/>
		<path class="st1" d="M2050,160c0,40-100,40-100,80"/>
		<path class="st1" d="M2050,160c0,40,0,40,0,80"/>
		<path class="st1" d="M2050,160c0,40,100,40,100,80"/>
		<path class="st1" d="M1950,240c0,40,0,40,0,80"/>
		<path class="st1" d="M2050,240c0,40,0,40,0,80"/>
		<path class="st1" d="M2150,240c0,40,0,40,0,80"/>
		<path class="st1" d="M2550,160c0,40-200,40-200,80"/>
		<path class="st1" d="M2350,240c0,40-50,40-50,80"/>
		<path class="st1" d="M2350,240c0,40,50,40,50,80"/>
		<path class="st1" d="M2300,320c0,40,0,40,0,80"/>
		<path class="st1" d="M2400,320c0,40,0,40,0,80"/>
		<path class="st1" d="M2750,240c0,40-150,40-150,80"/>
		<path class="st1" d="M2750,240c0,40-50,40-50,80"/>
		<path class="st1" d="M2750,240c0,40,50,40,50,80"/>
		<path class="st1" d="M2750,240c0,40,150,40,150,80"/>
		<path class="st1" d="M2600,320c0,40,0,40,0,80"/>
		<path class="st1" d="M2700,320c0,40,0,40,0,80"/>
		<path class="st1" d="M2800,320c0,40,0,40,0,80"/>
		<path class="st1" d="M2900,320c0,40,0,40,0,80"/>
		<g transform="translate(0,0)">
			<circle class="st2" cx="0" cy="0" r="10"/>
			<text transform="matrix(1 0 0 1 -11.6096 -15)" class="st3 st4">html</text>
		</g>
		<g transform="translate(-1000,80)">
			<circle class="st2" cx="0" cy="0" r="10"/>
			<text transform="matrix(1 0 0 1 -12.8369 -15)" class="st3 st4">head</text>
		</g>
		<g transform="translate(-1050,160)">
			<circle class="st2" cx="0" cy="0" r="10"/>
			<text transform="matrix(1 0 0 1 -12.8396 -15)" class="st3 st4">meta</text>
		</g>
		<g transform="translate(-950,160)">
			<circle class="st2" cx="0" cy="0" r="10"/>
			<text transform="matrix(1 0 0 1 -9.7781 -15)" class="st3 st4">title</text>
		</g>
		<g transform="translate(-950,240)">
			<circle class="st5" cx="0" cy="0" r="10"/>
			<text transform="matrix(1 0 0 1 -12.8396 -15)" class="st3 st4">#text</text>
		</g>
		<g transform="translate(1000,80)">
			<circle class="st2" cx="0" cy="0" r="10"/>
			<text transform="matrix(1 0 0 1 -13.1377 -15)" class="st3 st4">body</text>
		</g>
		<g transform="translate(2050,160)">
			<circle class="st2" cx="0" cy="0" r="10"/>
			<text transform="matrix(1 0 0 1 -28.7327 -15)" class="st3 st4">section.cta</text>
		</g>
		<g transform="translate(2550,160)">
			<circle class="st2" cx="0" cy="0" r="10"/>
			<text transform="matrix(1 0 0 1 -15.5815 -15)" class="st3 st4">footer</text>
		</g>
		<g transform="translate(2750,240)">
			<circle class="st2" cx="0" cy="0" r="10"/>
			<text transform="matrix(1 0 0 1 -28.1257 -15)" class="st3 st4">ul.sociales</text>
		</g>
		<g transform="translate(-1250,160)">
			<circle class="st2" cx="0" cy="0" r="10"/>
			<text transform="matrix(1 0 0 1 -12.8396 -15)" class="st3 st4">meta</text>
		</g>
		<g transform="translate(-1150,160)">
			<circle class="st2" cx="0" cy="0" r="10"/>
			<text transform="matrix(1 0 0 1 -12.8396 -15)" class="st3 st4">meta</text>
		</g>
		<g transform="translate(-850,160)">
			<circle class="st2" cx="0" cy="0" r="10"/>
			<text transform="matrix(1 0 0 1 -9.4746 -15)" class="st3 st4">link</text>
		</g>
		<g transform="translate(-750,160)">
			<circle class="st2" cx="0" cy="0" r="10"/>
			<text transform="matrix(1 0 0 1 -9.4746 -15)" class="st3 st4">link</text>
		</g>
		<g transform="translate(-450,160)">
			<circle class="st2" cx="0" cy="0" r="10"/>
			<text transform="matrix(1 0 0 1 -37.2969 -15)" class="st3 st4">header.header</text>
		</g>
		<g transform="translate(-500,240)">
			<circle class="st2" cx="0" cy="0" r="10"/>
			<text transform="matrix(1 0 0 1 -22.9131 -15)" class="st3 st4">img.logo</text>
		</g>
		<g transform="translate(-400,240)">
			<circle class="st2" cx="0" cy="0" r="10"/>
			<text transform="matrix(1 0 0 1 -7.9465 -15)" class="st3 st4">div</text>
		</g>
		<g transform="translate(-400,320)">
			<circle class="st2" cx="0" cy="0" r="10"/>
			<text transform="matrix(1 0 0 1 -9.4773 -15)" class="st3 st4">nav</text>
		</g>
		<g transform="translate(-400,400)">
			<circle class="st2" cx="0" cy="0" r="10"/>
			<text transform="matrix(1 0 0 1 -28.7273 -15)" class="st3 st4">ul.Red-Nav</text>
		</g>
		<g transform="translate(-550,480)">
			<circle class="st2" cx="0" cy="0" r="10"/>
			<text transform="matrix(1 0 0 1 -3.0562 -15)" class="st3 st4">li</text>
		</g>
		<g transform="translate(-550,560)">
			<circle class="st2" cx="0" cy="0" r="10"/>
			<text transform="matrix(1 0 0 1 -3.0588 -15)" class="st3 st4">a</text>
		</g>
		<g transform="translate(-550,640)">
			<circle class="st5" cx="0" cy="0" r="10"/>
			<text transform="matrix(1 0 0 1 -12.8396 -15)" class="st3 st4">#text</text>
		</g>
		<g transform="translate(-450,480)">
			<circle class="st2" cx="0" cy="0" r="10"/>
			<text transform="matrix(1 0 0 1 -3.0562 -15)" class="st3 st4">li</text>
		</g>
		<g transform="translate(-450,560)">
			<circle class="st2" cx="0" cy="0" r="10"/>
			<text transform="matrix(1 0 0 1 -3.0588 -15)" class="st3 st4">a</text>
		</g>
		<g transform="translate(-450,640)">
			<circle class="st5" cx="0" cy="0" r="10"/>
			<text transform="matrix(1 0 0 1 -12.8396 -15)" class="st3 st4">#text</text>
		</g>
		<g transform="translate(-350,480)">
			<circle class="st2" cx="0" cy="0" r="10"/>
			<text transform="matrix(1 0 0 1 -3.0562 -15)" class="st3 st4">li</text>
		</g>
		<g transform="translate(-350,560)">
			<circle class="st2" cx="0" cy="0" r="10"/>
			<text transform="matrix(1 0 0 1 -3.0588 -15)" class="st3 st4">a</text>
		</g>
		<g transform="translate(-350,640)">
			<circle class="st5" cx="0" cy="0" r="10"/>
			<text transform="matrix(1 0 0 1 -12.8396 -15)" class="st3 st4">#text</text>
		</g>
		<g transform="translate(-250,480)">
			<circle class="st2" cx="0" cy="0" r="10"/>
			<text transform="matrix(1 0 0 1 -3.0562 -15)" class="st3 st4">li</text>
		</g>
		<g transform="translate(-250,560)">
			<circle class="st2" cx="0" cy="0" r="10"/>
			<text transform="matrix(1 0 0 1 -3.0588 -15)" class="st3 st4">a</text>
		</g>
		<g transform="translate(-250,640)">
			<circle class="st5" cx="0" cy="0" r="10"/>
			<text transform="matrix(1 0 0 1 -12.8396 -15)" class="st3 st4">#text</text>
		</g>
		<g transform="translate(-150,160)">
			<circle class="st2" cx="0" cy="0" r="10"/>
			<text transform="matrix(1 0 0 1 -39.1204 -15)" class="st3 st4">section.banner</text>
		</g>
		<g transform="translate(-150,240)">
			<circle class="st2" cx="0" cy="0" r="10"/>
			<text transform="matrix(1 0 0 1 -49.0945 -15)" class="st3 st4">div.banner-content</text>
		</g>
		<g transform="translate(-200,320)">
			<circle class="st2" cx="0" cy="0" r="10"/>
			<text transform="matrix(1 0 0 1 -6.4185 -15)" class="st3 st4">h1</text>
		</g>
		<g transform="translate(-200,400)">
			<circle class="st5" cx="0" cy="0" r="10"/>
			<text transform="matrix(1 0 0 1 -12.8396 -15)" class="st3 st4">#text</text>
		</g>
		<g transform="translate(-100,320)">
			<circle class="st2" cx="0" cy="0" r="10"/>
			<text transform="matrix(1 0 0 1 -3.3596 -15)" class="st3 st4">p</text>
		</g>
		<g transform="translate(-100,400)">
			<circle class="st5" cx="0" cy="0" r="10"/>
			<text transform="matrix(1 0 0 1 -12.8396 -15)" class="st3 st4">#text</text>
		</g>
		<g transform="translate(300,160)">
			<circle class="st2" cx="0" cy="0" r="10"/>
			<text transform="matrix(1 0 0 1 -40.6484 -15)" class="st3 st4">section.historia</text>
		</g>
		<g transform="translate(300,240)">
			<circle class="st2" cx="0" cy="0" r="10"/>
			<text transform="matrix(1 0 0 1 -50.6226 -15)" class="st3 st4">div.historia-content</text>
		</g>
		<g transform="translate(100,320)">
			<circle class="st2" cx="0" cy="0" r="10"/>
			<text transform="matrix(1 0 0 1 -9.7781 -15)" class="st3 st4">img</text>
		</g>
		<g transform="translate(200,320)">
			<circle class="st2" cx="0" cy="0" r="10"/>
			<text transform="matrix(1 0 0 1 -6.4185 -15)" class="st3 st4">h2</text>
		</g>
		<g transform="translate(200,400)">
			<circle class="st5" cx="0" cy="0" r="10"/>
			<text transform="matrix(1 0 0 1 -12.8396 -15)" class="st3 st4">#text</text>
		</g>
		<g transform="translate(300,320)">
			<circle class="st2" cx="0" cy="0" r="10"/>
			<text transform="matrix(1 0 0 1 -3.3596 -15)" class="st3 st4">p</text>
		</g>
		<g transform="translate(300,400)">
			<circle class="st5" cx="0" cy="0" r="10"/>
			<text transform="matrix(1 0 0 1 -12.8396 -15)" class="st3 st4">#text</text>
		</g>
		<g transform="translate(400,320)">
			<circle class="st2" cx="0" cy="0" r="10"/>
			<text transform="matrix(1 0 0 1 -5.5 -15)" class="st3 st4">br</text>
		</g>
		<g transform="translate(500,320)">
			<circle class="st2" cx="0" cy="0" r="10"/>
			<text transform="matrix(1 0 0 1 -3.3596 -15)" class="st3 st4">p</text>
		</g>
		<g transform="translate(500,400)">
			<circle class="st5" cx="0" cy="0" r="10"/>
			<text transform="matrix(1 0 0 1 -12.8396 -15)" class="st3 st4">#text</text>
		</g>
		<g transform="translate(1175,160)">
			<circle class="st2" cx="0" cy="0" r="10"/>
			<text transform="matrix(1 0 0 1 -42.8049 -15)" class="st3 st4">section.services</text>
		</g>
		<g transform="translate(650,240)">
			<circle class="st2" cx="0" cy="0" r="10"/>
			<text transform="matrix(1 0 0 1 -6.4185 -15)" class="st3 st4">h2</text>
		</g>
		<g transform="translate(650,320)">
			<circle class="st5" cx="0" cy="0" r="10"/>
			<text transform="matrix(1 0 0 1 -12.8396 -15)" class="st3 st4">#text</text>
		</g>
		<g transform="translate(900,240)">
			<circle class="st2" cx="0" cy="0" r="10"/>
			<text transform="matrix(1 0 0 1 -28.0291 -15)" class="st3 st4">div.service</text>
		</g>
		<g transform="translate(800,320)">
			<circle class="st2" cx="0" cy="0" r="10"/>
			<text transform="matrix(1 0 0 1 -29.6458 -15)" class="st3 st4">i.fa.fa-truck</text>
		</g>
		<g transform="translate(900,320)">
			<circle class="st2" cx="0" cy="0" r="10"/>
			<text transform="matrix(1 0 0 1 -6.4185 -15)" class="st3 st4">h3</text>
		</g>
		<g transform="translate(900,400)">
			<circle class="st5" cx="0" cy="0" r="10"/>
			<text transform="matrix(1 0 0 1 -12.8396 -15)" class="st3 st4">#text</text>
		</g>
		<g transform="translate(1000,320)">
			<circle class="st2" cx="0" cy="0" r="10"/>
			<text transform="matrix(1 0 0 1 -3.3596 -15)" class="st3 st4">p</text>
		</g>
		<g transform="translate(1000,400)">
			<circle class="st5" cx="0" cy="0" r="10"/>
			<text transform="matrix(1 0 0 1 -12.8396 -15)" class="st3 st4">#text</text>
		</g>
		<g transform="translate(1300,240)">
			<circle class="st2" cx="0" cy="0" r="10"/>
			<text transform="matrix(1 0 0 1 -28.0291 -15)" class="st3 st4">div.service</text>
		</g>
		<g transform="translate(1200,320)">
			<circle class="st2" cx="0" cy="0" r="10"/>
			<text transform="matrix(1 0 0 1 -29.635 -15)" class="st3 st4">i.fa.fa-undo</text>
		</g>
		<g transform="translate(1300,320)">
			<circle class="st2" cx="0" cy="0" r="10"/>
			<text transform="matrix(1 0 0 1 -6.4185 -15)" class="st3 st4">h3</text>
		</g>
		<g transform="translate(1300,400)">
			<circle class="st5" cx="0" cy="0" r="10"/>
			<text transform="matrix(1 0 0 1 -12.8396 -15)" class="st3 st4">#text</text>
		</g>
		<g transform="translate(1400,320)">
			<circle class="st2" cx="0" cy="0" r="10"/>
			<text transform="matrix(1 0 0 1 -3.3596 -15)" class="st3 st4">p</text>
		</g>
		<g transform="translate(1400,400)">
			<circle class="st5" cx="0" cy="0" r="10"/>
			<text transform="matrix(1 0 0 1 -12.8396 -15)" class="st3 st4">#text</text>
		</g>
		<g transform="translate(1700,240)">
			<circle class="st2" cx="0" cy="0" r="10"/>
			<text transform="matrix(1 0 0 1 -28.0291 -15)" class="st3 st4">div.service</text>
		</g>
		<g transform="translate(1600,320)">
			<circle class="st2" cx="0" cy="0" r="10"/>
			<text transform="matrix(1 0 0 1 -48.5896 -15)" class="st3 st4">i.fa.fa-headphones</text>
		</g>
		<g transform="translate(1700,320)">
			<circle class="st2" cx="0" cy="0" r="10"/>
			<text transform="matrix(1 0 0 1 -6.4185 -15)" class="st3 st4">h3</text>
		</g>
		<g transform="translate(1700,400)">
			<circle class="st5" cx="0" cy="0" r="10"/>
			<text transform="matrix(1 0 0 1 -12.8396 -15)" class="st3 st4">#text</text>
		</g>
		<g transform="translate(1800,320)">
			<circle class="st2" cx="0" cy="0" r="10"/>
			<text transform="matrix(1 0 0 1 -3.3596 -15)" class="st3 st4">p</text>
		</g>
		<g transform="translate(1800,400)">
			<circle class="st5" cx="0" cy="0" r="10"/>
			<text transform="matrix(1 0 0 1 -12.8396 -15)" class="st3 st4">#text</text>
		</g>
		<g transform="translate(1950,240)">
			<circle class="st2" cx="0" cy="0" r="10"/>
			<text transform="matrix(1 0 0 1 -6.4185 -15)" class="st3 st4">h2</text>
		</g>
		<g transform="translate(1950,320)">
			<circle class="st5" cx="0" cy="0" r="10"/>
			<text transform="matrix(1 0 0 1 -12.8396 -15)" class="st3 st4">#text</text>
		</g>
		<g transform="translate(2050,240)">
			<circle class="st2" cx="0" cy="0" r="10"/>
			<text transform="matrix(1 0 0 1 -3.3596 -15)" class="st3 st4">p</text>
		</g>
		<g transform="translate(2050,320)">
			<circle class="st5" cx="0" cy="0" r="10"/>
			<text transform="matrix(1 0 0 1 -12.8396 -15)" class="st3 st4">#text</text>
		</g>
		<g transform="translate(2150,240)">
			<circle class="st2" cx="0" cy="0" r="10"/>
			<text transform="matrix(1 0 0 1 -22.9185 -15)" class="st3 st4">a.btn-cta</text>
		</g>
		<g transform="translate(2150,320)">
			<circle class="st5" cx="0" cy="0" r="10"/>
			<text transform="matrix(1 0 0 1 -12.8396 -15)" class="st3 st4">#text</text>
		</g>
		<g transform="translate(2350,240)">
			<circle class="st2" cx="0" cy="0" r="10"/>
			<text transform="matrix(1 0 0 1 -52.7549 -15)" class="st3 st4">div.contenido-footer</text>
		</g>
		<g transform="translate(2300,320)">
			<circle class="st2" cx="0" cy="0" r="10"/>
			<text transform="matrix(1 0 0 1 -6.4185 -15)" class="st3 st4">h3</text>
		</g>
		<g transform="translate(2300,400)">
			<circle class="st5" cx="0" cy="0" r="10"/>
			<text transform="matrix(1 0 0 1 -12.8396 -15)" class="st3 st4">#text</text>
		</g>
		<g transform="translate(2400,320)">
			<circle class="st2" cx="0" cy="0" r="10"/>
			<text transform="matrix(1 0 0 1 -3.3596 -15)" class="st3 st4">p</text>
		</g>
		<g transform="translate(2400,400)">
			<circle class="st5" cx="0" cy="0" r="10"/>
			<text transform="matrix(1 0 0 1 -12.8396 -15)" class="st3 st4">#text</text>
		</g>
		<g transform="translate(2600,320)">
			<circle class="st2" cx="0" cy="0" r="10"/>
			<text transform="matrix(1 0 0 1 -3.0562 -15)" class="st3 st4">li</text>
		</g>
		<g transform="translate(2600,400)">
			<circle class="st2" cx="0" cy="0" r="10"/>
			<text transform="matrix(1 0 0 1 -41.873 -15)" class="st3 st4">a.fa.fa-facebook</text>
		</g>
		<g transform="translate(2700,320)">
			<circle class="st2" cx="0" cy="0" r="10"/>
			<text transform="matrix(1 0 0 1 -3.0562 -15)" class="st3 st4">li</text>
		</g>
		<g transform="translate(2700,400)">
			<circle class="st2" cx="0" cy="0" r="10"/>
			<text transform="matrix(1 0 0 1 -44.0134 -15)" class="st3 st4">a.fa.fa-instagram</text>
		</g>
		<g transform="translate(2800,320)">
			<circle class="st2" cx="0" cy="0" r="10"/>
			<text transform="matrix(1 0 0 1 -3.0562 -15)" class="st3 st4">li</text>
		</g>
		<g transform="translate(2800,400)">
			<circle class="st2" cx="0" cy="0" r="10"/>
			<text transform="matrix(1 0 0 1 -34.2273 -15)" class="st3 st4">a.fa.fa-twitter</text>
		</g>
		<g transform="translate(2900,320)">
			<circle class="st2" cx="0" cy="0" r="10"/>
			<text transform="matrix(1 0 0 1 -3.0562 -15)" class="st3 st4">li</text>
		</g>
		<g transform="translate(2900,400)">
			<circle class="st2" cx="0" cy="0" r="10"/>
			<text transform="matrix(1 0 0 1 -39.1152 -15)" class="st3 st4">a.fa.fa-youtube</text>
		</g>
	</g>
</g>
</svg>
